<?xml version="1.0" encoding="UTF-8" standalone="no" ?>
<!DOCTYPE svg PUBLIC "-//W3C//DTD SVG 1.1//EN" "http://www.w3.org/Graphics/SVG/1.1/DTD/svg11.dtd">
<svg xmlns="http://www.w3.org/2000/svg" xmlns:xlink="http://www.w3.org/1999/xlink" version="1.1" width="1080" height="1080" viewBox="0 0 1080 1080" xml:space="preserve">
<desc>Created with Fabric.js 5.2.4</desc>
<defs>
</defs>
<rect x="0" y="0" width="100%" height="100%" fill="transparent"></rect>
<g transform="matrix(1 0 0 1 540 540)" id="114db1cf-475c-4865-8726-c89ea3a66615"  >
</g>
<g transform="matrix(1 0 0 1 540 540)" id="fe75986e-a582-4c99-9534-0756aec1ef14"  >
<rect style="stroke: none; stroke-width: 1; stroke-dasharray: none; stroke-linecap: butt; stroke-dashoffset: 0; stroke-linejoin: miter; stroke-miterlimit: 4; fill: rgb(255,255,255); fill-rule: nonzero; opacity: 1; visibility: hidden;" vector-effect="non-scaling-stroke"  x="-540" y="-540" rx="0" ry="0" width="1080" height="1080" />
</g>
<g transform="matrix(2.57 0 0 2.57 540 540)"  >
<path style="stroke: none; stroke-width: 1; stroke-dasharray: none; stroke-linecap: butt; stroke-dashoffset: 0; stroke-linejoin: miter; stroke-miterlimit: 4; fill: rgb(1,210,119); fill-rule: nonzero; opacity: 1;" vector-effect="non-scaling-stroke"  transform=" translate(-3315.6, -1855.1)" d="M 3494.78 1920.93 C 3509.38 1920.93 3519.26 1911.05 3519.26 1896.45 L 3519.26 1799.17 C 3519.26 1784.5700000000002 3509.38 1774.69 3494.78 1774.69 L 3136.4100000000003 1774.69 C 3121.8100000000004 1774.69 3111.9300000000003 1784.5700000000002 3111.9300000000003 1799.17 L 3111.9300000000003 1935.5 L 3124.4900000000002 1920.94 L 3124.4900000000002 1799.17 C 3124.5010103464415 1792.5913318140952 3129.8313318140954 1787.2610103464415 3136.4100000000003 1787.25 L 3494.78 1787.25 C 3501.358668185905 1787.2610103464413 3506.688989653559 1792.5913318140952 3506.7000000000003 1799.17 L 3506.7000000000003 1896.45 C 3506.688989653559 1903.028668185905 3501.358668185905 1908.3589896535589 3494.78 1908.3700000000001 L 3155 1908.3700000000001 L 3142.44 1920.93 L 3142.36 1920.8300000000002 z" stroke-linecap="round" />
</g>
<g transform="matrix(3.36 0 0 3.36 342.01 433.95)"  >
<path style="stroke: none; stroke-width: 1; stroke-dasharray: none; stroke-linecap: butt; stroke-dashoffset: 0; stroke-linejoin: miter; stroke-miterlimit: 4; fill: rgb(1,210,119); fill-rule: nonzero; opacity: 1;" vector-effect="non-scaling-stroke"  transform=" translate(-3227.21, -1820.06)" d="M 3154.3 1827.53 L 3154.3 1812.53 L 3160.2000000000003 1812.53 C 3166.0400000000004 1812.53 3166.0200000000004 1821.79 3160.2000000000003 1821.79 L 3157.3 1821.79 L 3157.3 1827.52 L 3154.3 1827.52 z M 3159.9500000000003 1818.8799999999999 C 3161.9500000000003 1818.8799999999999 3161.9500000000003 1815.52 3159.9500000000003 1815.52 L 3157.3 1815.52 L 3157.3 1818.8799999999999 L 3159.9500000000003 1818.8799999999999 z M 3176.07 1812.27 C 3186.4 1812.27 3186.4 1827.74 3176.07 1827.74 C 3165.7400000000002 1827.74 3165.7400000000002 1812.27 3176.07 1812.27 z M 3176.07 1815.36 C 3170.07 1815.36 3170.07 1824.6399999999999 3176.07 1824.6399999999999 C 3182.07 1824.6399999999999 3182.0800000000004 1815.35 3176.07 1815.35 z M 3193.12 1827.85 L 3186.97 1812.52 L 3190.35 1812.52 L 3193.35 1820.18 L 3196.29 1812.66 L 3196.44 1812.66 L 3199.38 1820.18 L 3202.38 1812.52 L 3205.76 1812.52 L 3199.63 1827.78 L 3199.08 1827.78 L 3196.33 1821.12 L 3193.6 1827.84 L 3193.08 1827.84 z M 3209.53 1827.53 L 3209.53 1812.53 L 3217 1812.53 L 3217 1815.53 L 3212.49 1815.53 L 3212.49 1818.53 L 3216.4399999999996 1818.53 L 3216.4399999999996 1821.53 L 3212.49 1821.53 L 3212.49 1824.53 L 3217.2599999999998 1824.53 L 3217.2599999999998 1827.53 L 3209.49 1827.53 z M 3229.47 1827.53 L 3226.47 1821.8 L 3225 1821.8 L 3225 1827.53 L 3222 1827.53 L 3222 1812.53 L 3227.92 1812.53 C 3233.27 1812.53 3233.8 1820.07 3229.39 1821.35 L 3232.8799999999997 1827.54 L 3229.4799999999996 1827.54 z M 3225 1818.8799999999999 L 3227.65 1818.8799999999999 C 3229.65 1818.8799999999999 3229.65 1815.52 3227.65 1815.52 L 3225 1815.52 L 3225 1818.8799999999999 z M 3236.76 1827.53 L 3236.76 1812.53 L 3244.28 1812.53 L 3244.28 1815.53 L 3239.77 1815.53 L 3239.77 1818.53 L 3243.72 1818.53 L 3243.72 1821.53 L 3239.77 1821.53 L 3239.77 1824.53 L 3244.54 1824.53 L 3244.54 1827.53 L 3236.77 1827.53 z M 3253.71 1827.53 L 3249.2400000000002 1827.53 L 3249.2400000000002 1812.53 L 3253.71 1812.53 C 3263.7 1812.52 3263.7 1827.53 3253.71 1827.53 z M 3252.2400000000002 1815.53 L 3252.2400000000002 1824.53 L 3253.71 1824.53 C 3259.55 1824.53 3259.55 1815.53 3253.71 1815.53 L 3252.2400000000002 1815.53 z M 3291.89 1820.77 L 3286.66 1812.52 L 3290.31 1812.52 L 3293.38 1817.69 L 3296.4500000000003 1812.52 L 3300.1200000000003 1812.52 L 3294.8700000000003 1820.77 L 3294.8700000000003 1827.53 L 3291.8700000000003 1827.53 L 3291.8700000000003 1820.77 z M 3282.58 1820.18 C 3283.4917751265216 1819.4561563073387 3284.0072736272027 1818.3435696152205 3283.97 1817.18 C 3284.095479030199 1815.989278335895 3283.6980400799825 1814.8027061104397 3282.8806801636356 1813.9277856366034 C 3282.063320247288 1813.0528651627671 3280.906495820118 1812.5757188434138 3279.7099999999996 1812.6200000000001 L 3273.7699999999995 1812.6200000000001 L 3273.7699999999995 1827.6200000000001 L 3279.7099999999996 1827.6200000000001 C 3280.896370881696 1827.612094601477 3282.030702024485 1827.1318317846549 3282.8620712379175 1826.285449131702 C 3283.69344045135 1825.4390664787495 3284.1533267558398 1824.296322368432 3284.1399999999994 1823.1100000000001 C 3284.1198719405247 1821.9396992304396 3283.539713915938 1820.8500434534913 3282.5799999999995 1820.18 z M 3276.79 1815.67 L 3279.46 1815.67 C 3280.1948182956367 1815.7903946451877 3280.734235885451 1816.4253841270884 3280.734235885451 1817.17 C 3280.734235885451 1817.9146158729118 3280.1948182956367 1818.5496053548125 3279.46 1818.67 L 3276.79 1818.67 L 3276.79 1815.67 z M 3279.46 1824.67 L 3276.79 1824.67 L 3276.79 1821.67 L 3279.46 1821.67 C 3279.8602463284406 1821.65906576047 3280.247634367363 1821.811869651651 3280.532638000474 1822.0930984022043 C 3280.817641633585 1822.3743271527576 3280.975596887101 1822.7596434640486 3280.9700000000003 1823.16 C 3280.9838211995097 1823.569023940905 3280.8287936826423 1823.965726064764 3280.5413025779912 1824.256999947108 C 3280.25381147334 1824.5482738294518 3279.8591696580843 1824.708473528928 3279.4500000000003 1824.7 z" stroke-linecap="round" />
</g>
<g transform="matrix(2.35 0 0 2.35 594.77 581.4)" style="" id="7bcbfa15-b90f-4b06-a871-36a69059b6fb"  >
		<text xml:space="preserve" font-family="Lato" font-size="63" font-style="normal" font-weight="400" style="stroke: none; stroke-width: 1; stroke-dasharray: none; stroke-linecap: butt; stroke-dashoffset: 0; stroke-linejoin: miter; stroke-miterlimit: 4; fill: rgb(1,210,119); fill-rule: nonzero; opacity: 1; white-space: pre;" ><tspan x="-174.54" y="19.79" >PLANETOID</tspan></text>
</g>
</svg>